# xmcd
#
# Track frame offsets: 
#        150
#        21096
#        53383
#        67579
#        95484
#        116646
#        125555
#        144418
#        167545
#        208156
#        224679
#
# Disc length: 3645 seconds
#
# Revision: 0
# Processed by: cddbd v1.5.2PL0 Copyright (c) Steve Scherf et al.
# Submitted via: ExactAudioCopy v0.99pb5
#
DISCID=980e3b0b
DTITLE=Janis Joplin  - Blow My Blues Away CD 6
DYEAR=1900
DGENRE=
TTITLE0=(cuts in) Combination of the Two (Carousel Ballroom, San Franc
TTITLE0=isco, CA 23 JUN 1968)
TTITLE1=I Need A Man to Love (Carousel Ballroom, San Francisco, CA 23J
TTITLE1=UN 1968)
TTITLE2=Flower In the Sun (Carousel Ballroom, San Francisco, CA 23 JUN
TTITLE2=1968)
TTITLE3=Light Is Faster Than Sound (Carousel Ballroom, San Francisco,C
TTITLE3=A 23 JUN 1968)
TTITLE4=Summertime (Carousel Ballroom, San Francisco, CA 23 JUN 1968)
TTITLE5=Mr. Natural (cuts) (Carousel Ballroom, San Francisco, CA 23 JU
TTITLE5=N 1968)
TTITLE6=Bye, Bye Baby (Avalon Ballroom, San Francisco, CA 1968 (FM))
TTITLE7=Women Is Losers (Avalon Ballroom, San Francisco, CA 1968 (FM))
TTITLE8=All is Loneliness (Avalon Ballroom, San Francisco, CA 1968 (FM
TTITLE8=))
TTITLE9=Call On Me (Avalon Ballroom, San Francisco, CA 1968 (FM))
TTITLE10=Ball and Chain (Avalon Ballroom, San Francisco, CA 1968 (FM))
EXTD=
EXTT0=
EXTT1=
EXTT2=
EXTT3=
EXTT4=
EXTT5=
EXTT6=
EXTT7=
EXTT8=
EXTT9=
EXTT10=
PLAYORDER=
